<svg aria-roledescription="er" role="graphics-document document" viewBox="-22.0546875 0 2366.34375 990" style="max-width: 2366.34375px;" xmlns:xlink="http://www.w3.org/1999/xlink" xmlns="http://www.w3.org/2000/svg" width="100%" id="mermaid-1757535556015"><style>#mermaid-1757535556015{font-family:"trebuchet ms",verdana,arial,sans-serif;font-size:16px;fill:#333;}#mermaid-1757535556015 .error-icon{fill:#552222;}#mermaid-1757535556015 .error-text{fill:#552222;stroke:#552222;}#mermaid-1757535556015 .edge-thickness-normal{stroke-width:2px;}#mermaid-1757535556015 .edge-thickness-thick{stroke-width:3.5px;}#mermaid-1757535556015 .edge-pattern-solid{stroke-dasharray:0;}#mermaid-1757535556015 .edge-pattern-dashed{stroke-dasharray:3;}#mermaid-1757535556015 .edge-pattern-dotted{stroke-dasharray:2;}#mermaid-1757535556015 .marker{fill:#333333;stroke:#333333;}#mermaid-1757535556015 .marker.cross{stroke:#333333;}#mermaid-1757535556015 svg{font-family:"trebuchet ms",verdana,arial,sans-serif;font-size:16px;}#mermaid-1757535556015 .entityBox{fill:#ECECFF;stroke:#9370DB;}#mermaid-1757535556015 .attributeBoxOdd{fill:#ffffff;stroke:#9370DB;}#mermaid-1757535556015 .attributeBoxEven{fill:#f2f2f2;stroke:#9370DB;}#mermaid-1757535556015 .relationshipLabelBox{fill:hsl(80, 100%, 96.2745098039%);opacity:0.7;background-color:hsl(80, 100%, 96.2745098039%);}#mermaid-1757535556015 .relationshipLabelBox rect{opacity:0.5;}#mermaid-1757535556015 .relationshipLine{stroke:#333333;}#mermaid-1757535556015 .entityTitleText{text-anchor:middle;font-size:18px;fill:#333;}#mermaid-1757535556015 #MD_PARENT_START{fill:#f5f5f5!important;stroke:#333333!important;stroke-width:1;}#mermaid-1757535556015 #MD_PARENT_END{fill:#f5f5f5!important;stroke:#333333!important;stroke-width:1;}#mermaid-1757535556015 :root{--mermaid-font-family:"trebuchet ms",verdana,arial,sans-serif;}</style><g></g><defs><marker orient="auto" markerHeight="240" markerWidth="190" refY="7" refX="0" id="MD_PARENT_START"><path d="M 18,7 L9,13 L1,7 L9,1 Z"></path></marker></defs><defs><marker orient="auto" markerHeight="28" markerWidth="20" refY="7" refX="19" id="MD_PARENT_END"><path d="M 18,7 L9,13 L1,7 L9,1 Z"></path></marker></defs><defs><marker orient="auto" markerHeight="18" markerWidth="18" refY="9" refX="0" id="ONLY_ONE_START"><path d="M9,0 L9,18 M15,0 L15,18" fill="none" stroke="gray"></path></marker></defs><defs><marker orient="auto" markerHeight="18" markerWidth="18" refY="9" refX="18" id="ONLY_ONE_END"><path d="M3,0 L3,18 M9,0 L9,18" fill="none" stroke="gray"></path></marker></defs><defs><marker orient="auto" markerHeight="18" markerWidth="30" refY="9" refX="0" id="ZERO_OR_ONE_START"><circle r="6" cy="9" cx="21" fill="white" stroke="gray"></circle><path d="M9,0 L9,18" fill="none" stroke="gray"></path></marker></defs><defs><marker orient="auto" markerHeight="18" markerWidth="30" refY="9" refX="30" id="ZERO_OR_ONE_END"><circle r="6" cy="9" cx="9" fill="white" stroke="gray"></circle><path d="M21,0 L21,18" fill="none" stroke="gray"></path></marker></defs><defs><marker orient="auto" markerHeight="36" markerWidth="45" refY="18" refX="18" id="ONE_OR_MORE_START"><path d="M0,18 Q 18,0 36,18 Q 18,36 0,18 M42,9 L42,27" fill="none" stroke="gray"></path></marker></defs><defs><marker orient="auto" markerHeight="36" markerWidth="45" refY="18" refX="27" id="ONE_OR_MORE_END"><path d="M3,9 L3,27 M9,18 Q27,0 45,18 Q27,36 9,18" fill="none" stroke="gray"></path></marker></defs><defs><marker orient="auto" markerHeight="36" markerWidth="57" refY="18" refX="18" id="ZERO_OR_MORE_START"><circle r="6" cy="18" cx="48" fill="white" stroke="gray"></circle><path d="M0,18 Q18,0 36,18 Q18,36 0,18" fill="none" stroke="gray"></path></marker></defs><defs><marker orient="auto" markerHeight="36" markerWidth="57" refY="18" refX="39" id="ZERO_OR_MORE_END"><circle r="6" cy="18" cx="9" fill="white" stroke="gray"></circle><path d="M21,18 Q39,0 57,18 Q39,36 21,18" fill="none" stroke="gray"></path></marker></defs><path style="stroke: gray; fill: none;" marker-start="url(#ONLY_ONE_START)" marker-end="url(#ZERO_OR_MORE_END)" d="M70,270L70,278.333C70,286.667,70,303.333,70,320C70,336.667,70,353.333,70,361.667L70,370" class="er relationshipLine"></path><path style="stroke: gray; fill: none;" marker-start="url(#ONLY_ONE_START)" marker-end="url(#ZERO_OR_MORE_END)" d="M1396.828,238.816L1289.711,252.347C1182.594,265.877,968.359,292.939,755.555,319.987C542.75,347.035,331.375,374.07,225.688,387.587L120,401.105" class="er relationshipLine"></path><path style="stroke: gray; fill: none;" marker-start="url(#ONLY_ONE_START)" marker-end="url(#ZERO_OR_MORE_END)" d="M1396.828,241.098L1320.353,254.248C1243.878,267.399,1090.927,293.699,1024.819,315.183C958.71,336.667,979.444,353.333,989.811,361.667L1000.177,370" class="er relationshipLine"></path><path style="stroke: gray; fill: none;" marker-start="url(#ONLY_ONE_START)" marker-end="url(#ZERO_OR_MORE_END)" d="M1396.828,244.692L1345.353,257.243C1293.878,269.794,1190.927,294.897,1157.594,317.442C1124.26,339.986,1160.544,359.972,1178.686,369.965L1196.828,379.959" class="er relationshipLine"></path><path style="stroke: gray; fill: none;" marker-start="url(#ONLY_ONE_START)" marker-end="url(#ZERO_OR_MORE_END)" d="M1246.828,445L1246.828,453.333C1246.828,461.667,1246.828,478.333,1246.828,495C1246.828,511.667,1246.828,528.333,1246.828,536.667L1246.828,545" class="er relationshipLine"></path><path style="stroke: gray; fill: none;" marker-start="url(#ONLY_ONE_START)" marker-end="url(#ZERO_OR_MORE_END)" d="M1046.828,445L1046.828,453.333C1046.828,461.667,1046.828,478.333,1046.828,495C1046.828,511.667,1046.828,528.333,1046.828,536.667L1046.828,545" class="er relationshipLine"></path><path style="stroke: gray; fill: none;" marker-start="url(#ONLY_ONE_START)" marker-end="url(#ZERO_OR_MORE_END)" d="M996.828,606.296L974.52,616.914C952.211,627.531,907.594,648.765,932.594,671.782C957.594,694.798,1052.211,719.597,1099.52,731.996L1146.828,744.395" class="er relationshipLine"></path><path style="stroke: gray; fill: none;" marker-start="url(#ONLY_ONE_START)" marker-end="url(#ZERO_OR_MORE_END)" d="M1146.828,775L1113.495,786.667C1080.161,798.333,1013.495,821.667,1025.995,845.673C1038.495,869.679,1130.161,894.359,1175.995,906.699L1221.828,919.038" class="er relationshipLine"></path><path style="stroke: gray; fill: none;" marker-start="url(#ONLY_ONE_START)" marker-end="url(#ZERO_OR_MORE_END)" d="M1146.828,786.667L1130.161,796.389C1113.495,806.111,1080.161,825.556,1030.161,846.944C980.161,868.333,913.495,891.667,880.161,903.333L846.828,915" class="er relationshipLine"></path><path style="stroke: gray; fill: none;" marker-start="url(#ONLY_ONE_START)" marker-end="url(#ZERO_OR_MORE_END)" d="M1218.257,795L1223.019,803.333C1227.781,811.667,1237.304,828.333,1208.733,848.333C1180.161,868.333,1113.495,891.667,1080.161,903.333L1046.828,915" class="er relationshipLine"></path><path style="stroke: gray; fill: none;" marker-start="url(#ONLY_ONE_START)" marker-end="url(#ZERO_OR_MORE_END)" d="M1246.828,786.667L1263.495,796.389C1280.161,806.111,1313.495,825.556,1359.328,846.62C1405.161,867.685,1463.495,890.37,1492.661,901.713L1521.828,913.056" class="er relationshipLine"></path><path style="stroke: gray; fill: none;" marker-start="url(#ONLY_ONE_START)" marker-end="url(#ZERO_OR_MORE_END)" d="M1089.685,620L1099.209,628.333C1108.733,636.667,1127.781,653.333,1089.996,674.066C1052.211,694.798,957.594,719.597,910.285,731.996L862.977,744.395" class="er relationshipLine"></path><path style="stroke: gray; fill: none;" marker-start="url(#ONLY_ONE_START)" marker-end="url(#ZERO_OR_MORE_END)" d="M1012.977,67.584L949.001,80.487C885.026,93.389,757.076,119.195,693.1,146.681C629.125,174.167,629.125,203.333,629.125,232.5C629.125,261.667,629.125,290.833,629.125,320C629.125,349.167,629.125,378.333,629.125,407.5C629.125,436.667,629.125,465.833,629.125,495C629.125,524.167,629.125,553.333,629.125,582.5C629.125,611.667,629.125,640.833,651.434,666.034C673.742,691.235,718.359,712.469,740.668,723.086L762.977,733.704" class="er relationshipLine"></path><path style="stroke: gray; fill: none;" marker-start="url(#ZERO_OR_MORE_START)" marker-end="url(#ONLY_ONE_END)" d="M1112.977,68.898L1168.618,81.581C1224.26,94.265,1335.544,119.633,1391.186,140.65C1446.828,161.667,1446.828,178.333,1446.828,186.667L1446.828,195" class="er relationshipLine"></path><path style="stroke: gray; fill: none;" marker-start="url(#ONLY_ONE_START)" marker-end="url(#ZERO_OR_MORE_END)" d="M1396.828,249.402L1362.02,261.168C1327.211,272.934,1257.594,296.467,1174.26,320.365C1090.927,344.262,993.878,368.525,945.353,380.656L896.828,392.787" class="er relationshipLine"></path><path style="stroke: gray; fill: none;" marker-start="url(#ONLY_ONE_START)" marker-end="url(#ZERO_OR_MORE_END)" d="M479.125,270L479.125,278.333C479.125,286.667,479.125,303.333,529.125,323.858C579.125,344.383,679.125,368.767,729.125,380.958L779.125,393.15" class="er relationshipLine"></path><path style="stroke: gray; fill: none;" marker-start="url(#ONLY_ONE_START)" marker-end="url(#ZERO_OR_MORE_END)" d="M1446.828,270L1446.828,278.333C1446.828,286.667,1446.828,303.333,1446.828,326.25C1446.828,349.167,1446.828,378.333,1446.828,407.5C1446.828,436.667,1446.828,465.833,1446.828,488.75C1446.828,511.667,1446.828,528.333,1446.828,536.667L1446.828,545" class="er relationshipLine"></path><path style="stroke: gray; fill: none;" marker-start="url(#ZERO_OR_MORE_START)" marker-end="url(#ONLY_ONE_END)" d="M1396.828,611.667L1380.161,621.389C1363.495,631.111,1330.161,650.556,1303.971,668.611C1277.781,686.667,1258.733,703.333,1249.209,711.667L1239.685,720" class="er relationshipLine"></path><path style="stroke: gray; fill: none;" marker-start="url(#ZERO_OR_MORE_START)" marker-end="url(#ONLY_ONE_END)" d="M1446.828,620L1446.828,628.333C1446.828,636.667,1446.828,653.333,1446.828,676.25C1446.828,699.167,1446.828,728.333,1446.828,757.5C1446.828,786.667,1446.828,815.833,1425.995,840.833C1405.161,865.833,1363.495,886.667,1342.661,897.083L1321.828,907.5" class="er relationshipLine"></path><path style="stroke: gray; fill: none;" marker-start="url(#ONLY_ONE_START)" marker-end="url(#ZERO_OR_MORE_END)" d="M1496.828,611.667L1513.495,621.389C1530.161,631.111,1563.495,650.556,1580.161,668.611C1596.828,686.667,1596.828,703.333,1596.828,711.667L1596.828,720" class="er relationshipLine"></path><path style="stroke: gray; fill: none;" marker-start="url(#ZERO_OR_MORE_START)" marker-end="url(#ONLY_ONE_END)" d="M1596.828,795L1596.828,803.333C1596.828,811.667,1596.828,828.333,1550.995,849.006C1505.161,869.679,1413.495,894.359,1367.661,906.699L1321.828,919.038" class="er relationshipLine"></path><path style="stroke: gray; fill: none;" marker-start="url(#ONLY_ONE_START)" marker-end="url(#ZERO_OR_MORE_END)" d="M1496.828,254.209L1522.083,265.174C1547.339,276.139,1597.849,298.07,1623.104,317.368C1648.359,336.667,1648.359,353.333,1648.359,361.667L1648.359,370" class="er relationshipLine"></path><path style="stroke: gray; fill: none;" marker-start="url(#ONLY_ONE_START)" marker-end="url(#ZERO_OR_MORE_END)" d="M1648.359,445L1648.359,453.333C1648.359,461.667,1648.359,478.333,1648.359,495C1648.359,511.667,1648.359,528.333,1648.359,536.667L1648.359,545" class="er relationshipLine"></path><path style="stroke: gray; fill: none;" marker-start="url(#ONLY_ONE_START)" marker-end="url(#ZERO_OR_MORE_END)" d="M1496.828,243.396L1555.417,256.163C1614.005,268.931,1731.182,294.465,1789.771,315.566C1848.359,336.667,1848.359,353.333,1848.359,361.667L1848.359,370" class="er relationshipLine"></path><path style="stroke: gray; fill: none;" marker-start="url(#ZERO_OR_MORE_START)" marker-end="url(#ONLY_ONE_END)" d="M98.571,95L93.81,103.333C89.048,111.667,79.524,128.333,74.762,145C70,161.667,70,178.333,70,186.667L70,195" class="er relationshipLine"></path><path style="stroke: gray; fill: none;" marker-start="url(#ZERO_OR_MORE_START)" marker-end="url(#ONLY_ONE_END)" d="M170,85.806L187.427,95.671C204.854,105.537,239.708,125.269,257.135,143.468C274.563,161.667,274.563,178.333,274.563,186.667L274.563,195" class="er relationshipLine"></path><path style="stroke: gray; fill: none;" marker-start="url(#ONLY_ONE_START)" marker-end="url(#ZERO_OR_MORE_END)" d="M1496.828,239.62L1590.911,253.016C1684.993,266.413,1873.159,293.207,1967.242,314.937C2061.324,336.667,2061.324,353.333,2061.324,361.667L2061.324,370" class="er relationshipLine"></path><path style="stroke: gray; fill: none;" marker-start="url(#ONLY_ONE_START)" marker-end="url(#ZERO_OR_MORE_END)" d="M2061.324,445L2061.324,453.333C2061.324,461.667,2061.324,478.333,2061.324,495C2061.324,511.667,2061.324,528.333,2061.324,536.667L2061.324,545" class="er relationshipLine"></path><path style="stroke: gray; fill: none;" marker-start="url(#ONLY_ONE_START)" marker-end="url(#ZERO_OR_MORE_END)" d="M1496.828,237.787L1626.405,251.489C1755.982,265.192,2015.135,292.596,2144.712,314.631C2274.289,336.667,2274.289,353.333,2274.289,361.667L2274.289,370" class="er relationshipLine"></path><g transform="translate(20,195 )" id="entity-User-818c511a-4a32-5484-ba70-875d765a9175"><rect height="75" width="100" y="0" x="0" class="er entityBox"></rect><text style="dominant-baseline: middle; text-anchor: middle; font-size: 12px;" transform="translate(50,37.5)" y="0" x="0" id="text-entity-User-818c511a-4a32-5484-ba70-875d765a9175" class="er entityLabel">User</text></g><g transform="translate(20,370 )" id="entity-Membership-1bdacbfb-321f-5cdf-b7f4-23d497a69c9d"><rect height="75" width="100" y="0" x="0" class="er entityBox"></rect><text style="dominant-baseline: middle; text-anchor: middle; font-size: 12px;" transform="translate(50,37.5)" y="0" x="0" id="text-entity-Membership-1bdacbfb-321f-5cdf-b7f4-23d497a69c9d" class="er entityLabel">Membership</text></g><g transform="translate(1396.828125,195 )" id="entity-Account-3e57c4b6-cd9d-514f-a2f6-ac5478bb332e"><rect height="75" width="100" y="0" x="0" class="er entityBox"></rect><text style="dominant-baseline: middle; text-anchor: middle; font-size: 12px;" transform="translate(50,37.5)" y="0" x="0" id="text-entity-Account-3e57c4b6-cd9d-514f-a2f6-ac5478bb332e" class="er entityLabel">Account</text></g><g transform="translate(996.828125,370 )" id="entity-Catalog-c7f991f3-cf31-5ac7-a300-e398b88676ec"><rect height="75" width="100" y="0" x="0" class="er entityBox"></rect><text style="dominant-baseline: middle; text-anchor: middle; font-size: 12px;" transform="translate(50,37.5)" y="0" x="0" id="text-entity-Catalog-c7f991f3-cf31-5ac7-a300-e398b88676ec" class="er entityLabel">Catalog</text></g><g transform="translate(1196.828125,370 )" id="entity-Project-c2395ed5-a5fa-58df-9cbe-a2926add311c"><rect height="75" width="100" y="0" x="0" class="er entityBox"></rect><text style="dominant-baseline: middle; text-anchor: middle; font-size: 12px;" transform="translate(50,37.5)" y="0" x="0" id="text-entity-Project-c2395ed5-a5fa-58df-9cbe-a2926add311c" class="er entityLabel">Project</text></g><g transform="translate(1196.828125,545 )" id="entity-ProjectItem-b54c631c-da08-5796-a015-69a21796d49c"><rect height="75" width="100" y="0" x="0" class="er entityBox"></rect><text style="dominant-baseline: middle; text-anchor: middle; font-size: 12px;" transform="translate(50,37.5)" y="0" x="0" id="text-entity-ProjectItem-b54c631c-da08-5796-a015-69a21796d49c" class="er entityLabel">ProjectItem</text></g><g transform="translate(996.828125,545 )" id="entity-Work-c869b7e5-c1e0-52ba-ac79-492a54ad56d0"><rect height="75" width="100" y="0" x="0" class="er entityBox"></rect><text style="dominant-baseline: middle; text-anchor: middle; font-size: 12px;" transform="translate(50,37.5)" y="0" x="0" id="text-entity-Work-c869b7e5-c1e0-52ba-ac79-492a54ad56d0" class="er entityLabel">Work</text></g><g transform="translate(1146.828125,720 )" id="entity-Version-150a73bf-916b-5be7-9fbd-ab77283e741a"><rect height="75" width="100" y="0" x="0" class="er entityBox"></rect><text style="dominant-baseline: middle; text-anchor: middle; font-size: 12px;" transform="translate(50,37.5)" y="0" x="0" id="text-entity-Version-150a73bf-916b-5be7-9fbd-ab77283e741a" class="er entityLabel">Version</text></g><g transform="translate(1221.828125,895 )" id="entity-Asset-6a11329b-5ae6-5dd8-a944-532118731aa8"><rect height="75" width="100" y="0" x="0" class="er entityBox"></rect><text style="dominant-baseline: middle; text-anchor: middle; font-size: 12px;" transform="translate(50,37.5)" y="0" x="0" id="text-entity-Asset-6a11329b-5ae6-5dd8-a944-532118731aa8" class="er entityLabel">Asset</text></g><g transform="translate(746.828125,895 )" id="entity-Lyric-9a63f091-e3a5-5e0d-966e-f66c84667f39"><rect height="75" width="100" y="0" x="0" class="er entityBox"></rect><text style="dominant-baseline: middle; text-anchor: middle; font-size: 12px;" transform="translate(50,37.5)" y="0" x="0" id="text-entity-Lyric-9a63f091-e3a5-5e0d-966e-f66c84667f39" class="er entityLabel">Lyric</text></g><g transform="translate(946.828125,895 )" id="entity-Section-3a82f184-c96b-533a-a9d8-91dcc04850ca"><rect height="75" width="100" y="0" x="0" class="er entityBox"></rect><text style="dominant-baseline: middle; text-anchor: middle; font-size: 12px;" transform="translate(50,37.5)" y="0" x="0" id="text-entity-Section-3a82f184-c96b-533a-a9d8-91dcc04850ca" class="er entityLabel">Section</text></g><g transform="translate(1521.828125,895 )" id="entity-TempoMap-64ccab46-4169-59b9-9063-04b343de627a"><rect height="75" width="100" y="0" x="0" class="er entityBox"></rect><text style="dominant-baseline: middle; text-anchor: middle; font-size: 12px;" transform="translate(50,37.5)" y="0" x="0" id="text-entity-TempoMap-64ccab46-4169-59b9-9063-04b343de627a" class="er entityLabel">TempoMap</text></g><g transform="translate(762.9765625,720 )" id="entity-Split-1bf8be0a-7b81-5354-9aa9-8dca4dcf732c"><rect height="75" width="100" y="0" x="0" class="er entityBox"></rect><text style="dominant-baseline: middle; text-anchor: middle; font-size: 12px;" transform="translate(50,37.5)" y="0" x="0" id="text-entity-Split-1bf8be0a-7b81-5354-9aa9-8dca4dcf732c" class="er entityLabel">Split</text></g><g transform="translate(1012.9765625,20 )" id="entity-Party-c75247fa-3b59-542c-a79d-841d15432b6f"><rect height="75" width="100" y="0" x="0" class="er entityBox"></rect><text style="dominant-baseline: middle; text-anchor: middle; font-size: 12px;" transform="translate(50,37.5)" y="0" x="0" id="text-entity-Party-c75247fa-3b59-542c-a79d-841d15432b6f" class="er entityLabel">Party</text></g><g transform="translate(779.125,370 )" id="entity-ProviderAccount-6ed7bb83-85c0-5bed-957f-b603d3d1a0b4"><rect height="75" width="117.703125" y="0" x="0" class="er entityBox"></rect><text style="dominant-baseline: middle; text-anchor: middle; font-size: 12px;" transform="translate(58.8515625,37.5)" y="0" x="0" id="text-entity-ProviderAccount-6ed7bb83-85c0-5bed-957f-b603d3d1a0b4" class="er entityLabel">ProviderAccount</text></g><g transform="translate(429.125,195 )" id="entity-Provider-9b6ea8c7-2c50-5da8-9f06-f47523ff465f"><rect height="75" width="100" y="0" x="0" class="er entityBox"></rect><text style="dominant-baseline: middle; text-anchor: middle; font-size: 12px;" transform="translate(50,37.5)" y="0" x="0" id="text-entity-Provider-9b6ea8c7-2c50-5da8-9f06-f47523ff465f" class="er entityLabel">Provider</text></g><g transform="translate(1396.828125,545 )" id="entity-AIJob-8d1ddfc0-9ca9-5021-9b75-0ce31217a08c"><rect height="75" width="100" y="0" x="0" class="er entityBox"></rect><text style="dominant-baseline: middle; text-anchor: middle; font-size: 12px;" transform="translate(50,37.5)" y="0" x="0" id="text-entity-AIJob-8d1ddfc0-9ca9-5021-9b75-0ce31217a08c" class="er entityLabel">AIJob</text></g><g transform="translate(1546.828125,720 )" id="entity-JobOutput-08d510ae-fff6-553a-b38d-347e6a450822"><rect height="75" width="100" y="0" x="0" class="er entityBox"></rect><text style="dominant-baseline: middle; text-anchor: middle; font-size: 12px;" transform="translate(50,37.5)" y="0" x="0" id="text-entity-JobOutput-08d510ae-fff6-553a-b38d-347e6a450822" class="er entityLabel">JobOutput</text></g><g transform="translate(1598.359375,370 )" id="entity-Subscription-57a38d08-83cf-5b3e-8b7c-3deeaeab3fc2"><rect height="75" width="100" y="0" x="0" class="er entityBox"></rect><text style="dominant-baseline: middle; text-anchor: middle; font-size: 12px;" transform="translate(50,37.5)" y="0" x="0" id="text-entity-Subscription-57a38d08-83cf-5b3e-8b7c-3deeaeab3fc2" class="er entityLabel">Subscription</text></g><g transform="translate(1596.828125,545 )" id="entity-MeterReading-ceed891e-4c68-5c7e-89dc-2c0bb98a5b95"><rect height="75" width="103.0625" y="0" x="0" class="er entityBox"></rect><text style="dominant-baseline: middle; text-anchor: middle; font-size: 12px;" transform="translate(51.53125,37.5)" y="0" x="0" id="text-entity-MeterReading-ceed891e-4c68-5c7e-89dc-2c0bb98a5b95" class="er entityLabel">MeterReading</text></g><g transform="translate(1798.359375,370 )" id="entity-Invite-ba7f6fde-0db9-5703-aa19-e22f7ff31fb7"><rect height="75" width="100" y="0" x="0" class="er entityBox"></rect><text style="dominant-baseline: middle; text-anchor: middle; font-size: 12px;" transform="translate(50,37.5)" y="0" x="0" id="text-entity-Invite-ba7f6fde-0db9-5703-aa19-e22f7ff31fb7" class="er entityLabel">Invite</text></g><g transform="translate(70,20 )" id="entity-ACL-4c498baf-2120-5143-a237-22f852d5e007"><rect height="75" width="100" y="0" x="0" class="er entityBox"></rect><text style="dominant-baseline: middle; text-anchor: middle; font-size: 12px;" transform="translate(50,37.5)" y="0" x="0" id="text-entity-ACL-4c498baf-2120-5143-a237-22f852d5e007" class="er entityLabel">ACL</text></g><g transform="translate(220,195 )" id="entity-SecuredObject-77f06439-a4a7-5c24-8417-35019dd6e4a0"><rect height="75" width="109.125" y="0" x="0" class="er entityBox"></rect><text style="dominant-baseline: middle; text-anchor: middle; font-size: 12px;" transform="translate(54.5625,37.5)" y="0" x="0" id="text-entity-SecuredObject-77f06439-a4a7-5c24-8417-35019dd6e4a0" class="er entityLabel">SecuredObject</text></g><g transform="translate(1998.359375,370 )" id="entity-WebhookEndpoint-62ef668a-b761-5733-afc1-6ec0bb13356b"><rect height="75" width="125.9296875" y="0" x="0" class="er entityBox"></rect><text style="dominant-baseline: middle; text-anchor: middle; font-size: 12px;" transform="translate(62.96484375,37.5)" y="0" x="0" id="text-entity-WebhookEndpoint-62ef668a-b761-5733-afc1-6ec0bb13356b" class="er entityLabel">WebhookEndpoint</text></g><g transform="translate(2000.19140625,545 )" id="entity-WebhookDelivery-8ffce1ff-e6a8-5cbb-aa27-9d6bffc4a6cc"><rect height="75" width="122.265625" y="0" x="0" class="er entityBox"></rect><text style="dominant-baseline: middle; text-anchor: middle; font-size: 12px;" transform="translate(61.1328125,37.5)" y="0" x="0" id="text-entity-WebhookDelivery-8ffce1ff-e6a8-5cbb-aa27-9d6bffc4a6cc" class="er entityLabel">WebhookDelivery</text></g><g transform="translate(2224.2890625,370 )" id="entity-AuditEvent-4c4cac3c-c88a-5d7c-9517-758409a608ed"><rect height="75" width="100" y="0" x="0" class="er entityBox"></rect><text style="dominant-baseline: middle; text-anchor: middle; font-size: 12px;" transform="translate(50,37.5)" y="0" x="0" id="text-entity-AuditEvent-4c4cac3c-c88a-5d7c-9517-758409a608ed" class="er entityLabel">AuditEvent</text></g><rect height="14" width="144.109375" y="313" x="-2.0546875" class="er relationshipLabelBox"></rect><text style="text-anchor: middle; dominant-baseline: middle; font-size: 12px;" y="320" x="70" id="rel1" class="er relationshipLabel">sitewide → many accounts</text><rect height="14" width="182.6484375" y="312.62945556640625" x="667.0477294921875" class="er relationshipLabelBox"></rect><text style="text-anchor: middle; dominant-baseline: middle; font-size: 12px;" y="319.62945556640625" x="758.3719482421875" id="rel2" class="er relationshipLabel">role: owner/admin/editor/viewer</text><rect height="14" width="129.078125" y="275.3426208496094" x="1100.307861328125" class="er relationshipLabelBox"></rect><text style="text-anchor: middle; dominant-baseline: middle; font-size: 12px;" y="282.3426208496094" x="1164.846923828125" id="rel3" class="er relationshipLabel">logical bucket for works</text><rect height="14" width="158.3046875" y="281.1907043457031" x="1150.277099609375" class="er relationshipLabelBox"></rect><text style="text-anchor: middle; dominant-baseline: middle; font-size: 12px;" y="288.1907043457031" x="1229.429443359375" id="rel4" class="er relationshipLabel">collections/playlists/releases</text><rect height="14" width="134.3203125" y="488" x="1179.6678466796875" class="er relationshipLabelBox"></rect><text style="text-anchor: middle; dominant-baseline: middle; font-size: 12px;" y="495" x="1246.8280029296875" id="rel5" class="er relationshipLabel">links Work/Version/Asset</text><rect height="14.0078125" width="102.140625" y="487.99609375" x="995.7576904296875" class="er relationshipLabelBox"></rect><text style="text-anchor: middle; dominant-baseline: middle; font-size: 12px;" y="495" x="1046.8280029296875" id="rel6" class="er relationshipLabel">Song (composition)</text><rect height="14" width="167.0390625" y="691.3816528320312" x="902.3253784179688" class="er relationshipLabelBox"></rect><text style="text-anchor: middle; dominant-baseline: middle; font-size: 12px;" y="698.3816528320312" x="985.8449096679688" id="rel7" class="er relationshipLabel">Arrangement / recording / mix</text><rect height="14" width="108.4453125" y="857.6890869140625" x="996.1236572265625" class="er relationshipLabelBox"></rect><text style="text-anchor: middle; dominant-baseline: middle; font-size: 12px;" y="864.6890869140625" x="1050.3463134765625" id="rel8" class="er relationshipLabel">stems/mix/midi/ref</text><rect height="14" width="36.6171875" y="852.1385498046875" x="982.1781005859375" class="er relationshipLabelBox"></rect><text style="text-anchor: middle; dominant-baseline: middle; font-size: 12px;" y="859.1385498046875" x="1000.4866943359375" id="rel9" class="er relationshipLabel">history</text><rect height="14" width="90.7421875" y="866.7914428710938" x="1113.427734375" class="er relationshipLabelBox"></rect><text style="text-anchor: middle; dominant-baseline: middle; font-size: 12px;" y="873.7914428710938" x="1158.798828125" id="rel10" class="er relationshipLabel">structure/chords</text><rect height="0" width="0" y="856.426025390625" x="1381.25537109375" class="er relationshipLabelBox"></rect><text style="text-anchor: middle; dominant-baseline: middle; font-size: 12px;" y="856.426025390625" x="1381.25537109375" id="rel11" class="er relationshipLabel"></text><rect height="14" width="116.640625" y="696.2950439453125" x="954.7561645507812" class="er relationshipLabelBox"></rect><text style="text-anchor: middle; dominant-baseline: middle; font-size: 12px;" y="703.2950439453125" x="1013.0764770507812" id="rel12" class="er relationshipLabel">percentages per work</text><rect height="14.0078125" width="188.203125" y="287.41632080078125" x="535.0234375" class="er relationshipLabelBox"></rect><text style="text-anchor: middle; dominant-baseline: middle; font-size: 12px;" y="294.42022705078125" x="629.125" id="rel13" class="er relationshipLabel">User or External (writer/publisher)</text><rect height="14" width="128.8359375" y="104.64865112304688" x="1229.7745361328125" class="er relationshipLabelBox"></rect><text style="text-anchor: middle; dominant-baseline: middle; font-size: 12px;" y="111.64865112304688" x="1294.1925048828125" id="rel14" class="er relationshipLabel">owned or referenced by</text><rect height="14" width="119.53125" y="320.5882568359375" x="1088.9403076171875" class="er relationshipLabelBox"></rect><text style="text-anchor: middle; dominant-baseline: middle; font-size: 12px;" y="327.5882568359375" x="1148.7059326171875" id="rel15" class="er relationshipLabel">API creds per provider</text><rect height="0" width="0" y="351.4969482421875" x="614.4736938476562" class="er relationshipLabelBox"></rect><text style="text-anchor: middle; dominant-baseline: middle; font-size: 12px;" y="351.4969482421875" x="614.4736938476562" id="rel16" class="er relationshipLabel"></text><rect height="14" width="186.0234375" y="400.5" x="1353.8162841796875" class="er relationshipLabelBox"></rect><text style="text-anchor: middle; dominant-baseline: middle; font-size: 12px;" y="407.5" x="1446.8280029296875" id="rel17" class="er relationshipLabel">queued/running/succeeded/failed</text><rect height="14" width="72.609375" y="654.1896362304688" x="1278.6998291015625" class="er relationshipLabelBox"></rect><text style="text-anchor: middle; dominant-baseline: middle; font-size: 12px;" y="661.1896362304688" x="1315.0045166015625" id="rel18" class="er relationshipLabel">input context</text><rect height="14.0078125" width="112.6484375" y="787.8848266601562" x="1388.834228515625" class="er relationshipLabelBox"></rect><text style="text-anchor: middle; dominant-baseline: middle; font-size: 12px;" y="794.8887329101562" x="1445.158447265625" id="rel19" class="er relationshipLabel">inputAsset (optional)</text><rect height="14" width="92.96875" y="646.5240478515625" x="1516.6981201171875" class="er relationshipLabelBox"></rect><text style="text-anchor: middle; dominant-baseline: middle; font-size: 12px;" y="653.5240478515625" x="1563.1824951171875" id="rel20" class="er relationshipLabel">→ Assets created</text><rect height="0" width="0" y="876.4115600585938" x="1474.33203125" class="er relationshipLabelBox"></rect><text style="text-anchor: middle; dominant-baseline: middle; font-size: 12px;" y="876.4115600585938" x="1474.33203125" id="rel21" class="er relationshipLabel"></text><rect height="14" width="140.5625" y="289.49822998046875" x="1518.7674560546875" class="er relationshipLabelBox"></rect><text style="text-anchor: middle; dominant-baseline: middle; font-size: 12px;" y="296.49822998046875" x="1589.0487060546875" id="rel22" class="er relationshipLabel">plan, renewsAt, spendCap</text><rect height="14" width="80.2265625" y="488" x="1608.2457275390625" class="er relationshipLabelBox"></rect><text style="text-anchor: middle; dominant-baseline: middle; font-size: 12px;" y="495" x="1648.3590087890625" id="rel23" class="er relationshipLabel">usage counters</text><rect height="14" width="145.1484375" y="279.184326171875" x="1614.1092529296875" class="er relationshipLabelBox"></rect><text style="text-anchor: middle; dominant-baseline: middle; font-size: 12px;" y="286.184326171875" x="1686.6834716796875" id="rel24" class="er relationshipLabel">email + role + target scope</text><rect height="14" width="153.2890625" y="135.5529022216797" x="-1.1497879028320312" class="er relationshipLabelBox"></rect><text style="text-anchor: middle; dominant-baseline: middle; font-size: 12px;" y="142.5529022216797" x="75.49474334716797" id="rel25" class="er relationshipLabel">optional per-object override</text><rect height="14" width="117.0546875" y="120.72802734375" x="180.17263793945312" class="er relationshipLabelBox"></rect><text style="text-anchor: middle; dominant-baseline: middle; font-size: 12px;" y="127.72802734375" x="238.69998168945312" id="rel26" class="er relationshipLabel">Work/Version/Project</text><rect height="0" width="0" y="282.7807922363281" x="1791.2777099609375" class="er relationshipLabelBox"></rect><text style="text-anchor: middle; dominant-baseline: middle; font-size: 12px;" y="282.7807922363281" x="1791.2777099609375" id="rel27" class="er relationshipLabel"></text><rect height="14" width="73.84375" y="488" x="2024.402099609375" class="er relationshipLabelBox"></rect><text style="text-anchor: middle; dominant-baseline: middle; font-size: 12px;" y="495" x="2061.323974609375" id="rel28" class="er relationshipLabel">status/retries</text><rect height="14" width="89.6484375" y="274.2222900390625" x="1851.7183837890625" class="er relationshipLabelBox"></rect><text style="text-anchor: middle; dominant-baseline: middle; font-size: 12px;" y="281.2222900390625" x="1896.5426025390625" id="rel29" class="er relationshipLabel">who/what/when</text></svg>